<?xml version="1.0" standalone="no"?>
<!DOCTYPE svg PUBLIC "-//W3C//DTD SVG 20010904//EN"
 "http://www.w3.org/TR/2001/REC-SVG-20010904/DTD/svg10.dtd">
<svg version="1.0" xmlns="http://www.w3.org/2000/svg"
 width="700.000000pt" height="700.000000pt" viewBox="0 0 700.000000 700.000000"
 preserveAspectRatio="xMidYMid meet">
<metadata>
Created by potrace 1.11, written by Peter Selinger 2001-2013
</metadata>
<g transform="translate(0.000000,700.000000) scale(0.100000,-0.100000)"
fill="#000000" stroke="none">
<path d="M2298 6971 l-33 -29 0 -1106 0 -1106 -30 -1 c-16 0 -502 0 -1080 0
-675 0 -1062 -4 -1082 -10 -79 -25 -97 -134 -30 -181 l32 -23 1090 -1 c599 -1
1092 -2 1095 -3 3 0 5 -452 5 -1003 l0 -1003 -1092 -1 c-1030 -2 -1093 -3
-1122 -20 -61 -36 -66 -121 -10 -168 l31 -26 1096 0 1097 0 0 -1116 0 -1116
33 -29 c34 -31 66 -36 105 -18 54 25 52 -35 53 1154 1 605 2 1106 3 1113 1 9
218 12 1049 12 l1049 0 1 -1088 c0 -598 1 -1100 1 -1115 1 -37 51 -87 86 -87
37 0 79 24 93 54 8 19 11 286 11 1018 0 546 1 1044 1 1105 l0 113 1096 2 1096
3 29 33 c16 18 29 44 29 58 0 41 -29 91 -60 104 -22 9 -296 12 -1110 12
l-1080 1 0 98 c0 55 0 443 0 864 0 421 0 829 0 908 l0 142 1081 0 c821 0 1088
3 1110 12 66 28 75 133 16 177 l-28 21 -1090 0 -1089 0 0 70 c0 39 0 532 0
1098 -1 761 -4 1034 -12 1053 -13 29 -55 54 -91 54 -30 0 -73 -33 -83 -63 -4
-12 -7 -514 -7 -1114 l0 -1093 -76 -1 c-478 -4 -2014 0 -2019 6 -4 3 -7 498
-7 1098 -1 601 -4 1101 -8 1112 -9 26 -57 55 -91 55 -14 0 -40 -13 -58 -29z
m2253 -2460 c3 0 5 -452 5 -1003 l-1 -1003 -1047 -1 c-962 -2 -1048 0 -1049
15 -3 39 -5 1977 -2 1986 2 7 357 10 1046 9 573 -1 1045 -2 1048 -3z"/>
<path d="M3340 4188 c-214 -33 -394 -162 -503 -360 -25 -46 -61 -151 -72 -213
-18 -100 1 -258 43 -362 101 -248 326 -411 593 -430 297 -20 566 146 683 425
14 33 28 73 30 88 3 16 10 50 14 76 5 26 8 80 7 120 -10 273 -186 519 -445
620 -100 39 -239 54 -350 36z m218 -233 c309 -71 457 -432 287 -701 -129 -203
-388 -273 -605 -163 -280 140 -339 516 -115 742 113 114 272 158 433 122z"/>
<path d="M5695 6629 c-285 -37 -512 -240 -585 -523 -24 -94 -20 -252 9 -353
73 -254 271 -428 556 -489 38 -8 192 -5 236 5 239 54 427 211 510 426 37 96
43 133 43 260 -1 265 -140 487 -379 605 -127 63 -259 86 -390 69z m193 -235
c69 -12 165 -65 222 -123 103 -103 141 -200 137 -351 -2 -86 -6 -102 -39 -172
-60 -127 -164 -216 -300 -258 -114 -35 -299 -2 -393 69 -332 255 -213 770 195
841 46 8 113 6 178 -6z"/>
<path d="M3050 6458 c-89 -24 -133 -127 -89 -210 7 -12 83 -94 171 -181 l158
-157 -165 -165 c-174 -175 -195 -207 -180 -277 10 -43 61 -96 104 -108 74 -20
101 -3 282 177 l166 165 162 -162 c90 -89 174 -165 187 -171 86 -32 183 22
198 111 11 67 -9 97 -173 263 -86 87 -158 160 -161 163 -2 3 68 78 157 167 88
89 166 172 172 184 17 33 13 101 -6 135 -36 59 -116 86 -183 60 -14 -6 -99
-83 -189 -172 l-163 -162 -167 165 c-114 113 -176 168 -197 172 -16 4 -33 8
-39 9 -5 2 -26 -1 -45 -6z"/>
<path d="M644 4045 c-52 -23 -96 -90 -88 -139 9 -58 28 -83 181 -238 l165
-166 -165 -166 c-181 -182 -192 -201 -175 -281 18 -81 127 -131 201 -94 12 6
95 84 184 172 l163 161 162 -160 c167 -166 204 -191 262 -180 92 17 149 114
117 199 -5 13 -82 98 -171 187 l-162 163 160 161 c88 88 167 175 175 191 45
90 -34 205 -137 200 -25 -2 -57 -10 -70 -18 -13 -9 -93 -86 -179 -172 l-156
-155 -155 154 c-86 85 -167 162 -180 171 -32 21 -94 26 -132 10z"/>
<path d="M937 1864 c-1 -1 -18 -4 -37 -7 -165 -22 -338 -126 -440 -263 -172
-230 -188 -529 -41 -772 83 -137 210 -242 357 -292 88 -31 118 -35 244 -35
130 1 194 16 303 71 83 42 83 42 171 130 142 141 203 294 200 501 -2 101 -17
167 -59 260 -91 198 -241 326 -452 384 -62 17 -234 33 -246 23z m231 -254
c180 -63 301 -227 307 -418 5 -137 -38 -251 -128 -342 -134 -136 -329 -180
-500 -113 -189 74 -305 250 -298 453 7 214 173 405 381 440 69 11 175 2 238
-20z"/>
<path d="M3024 1636 c-66 -29 -101 -123 -69 -187 9 -19 88 -106 176 -194 l158
-160 -164 -165 c-171 -170 -192 -201 -181 -264 13 -75 82 -129 154 -122 22 2
48 8 57 13 9 5 89 82 179 171 l162 161 139 -140 c176 -178 204 -199 262 -199
79 0 135 47 147 123 10 63 -14 99 -179 264 -85 86 -155 159 -155 162 0 3 73
78 161 166 89 88 165 170 170 183 47 122 -75 240 -194 188 -18 -8 -102 -84
-187 -170 -85 -86 -158 -156 -162 -156 -4 0 -74 67 -155 149 -82 82 -164 158
-183 170 -40 24 -91 26 -136 7z"/>
</g>
</svg>
