<svg xmlns="http://www.w3.org/2000/svg" width="66" height="66.053" viewBox="0 0 66 66.053"><g transform="translate(-313 -29.551)"><g transform="translate(313.134 29.551)"><rect width="66" height="2" rx="1" transform="translate(-0.134 21.449)" fill="#004e89"/><rect width="66" height="2" rx="1" transform="translate(-0.134 42.449)" fill="#004e89"/><rect width="66.053" height="1.793" rx="0.896" transform="translate(23.021) rotate(90)" fill="#004e89"/><rect width="66.053" height="1.793" rx="0.896" transform="translate(44.63) rotate(90)" fill="#004e89"/></g><g transform="translate(339 56)"><path d="M6.5,13A6.5,6.5,0,0,1,3.97.511,6.5,6.5,0,0,1,9.03,12.489,6.459,6.459,0,0,1,6.5,13ZM6.549,2.15a4.4,4.4,0,1,0,4.4,4.4A4.4,4.4,0,0,0,6.549,2.15Z" transform="translate(0 0)" fill="#004e89"/></g><g transform="translate(316 78)"><path d="M6.5,13A6.5,6.5,0,0,1,3.97.511,6.5,6.5,0,0,1,9.03,12.489,6.459,6.459,0,0,1,6.5,13ZM6.549,2.15a4.4,4.4,0,1,0,4.4,4.4A4.4,4.4,0,0,0,6.549,2.15Z" transform="translate(0 0)" fill="#004e89"/></g><path d="M5.421,12.222V8.182H1.381a1.381,1.381,0,1,1,0-2.761h4.04V1.381a1.381,1.381,0,1,1,2.761,0v4.04h4.04a1.381,1.381,0,0,1,0,2.761H8.182v4.04a1.381,1.381,0,1,1-2.761,0Z" transform="translate(345.973 30.23) rotate(45)" fill="#004e89"/><g transform="translate(336.354 75.639)"><path d="M5.421,12.222V8.182H1.381a1.381,1.381,0,1,1,0-2.761h4.04V1.381a1.381,1.381,0,1,1,2.761,0v4.04h4.04a1.381,1.381,0,0,1,0,2.761H8.182v4.04a1.381,1.381,0,1,1-2.761,0Z" transform="translate(9.618 0) rotate(45)" fill="#004e89"/></g><g transform="translate(361 33)"><path d="M6.5,13A6.5,6.5,0,0,1,3.97.511,6.5,6.5,0,0,1,9.03,12.489,6.459,6.459,0,0,1,6.5,13ZM6.549,2.15a4.4,4.4,0,1,0,4.4,4.4A4.4,4.4,0,0,0,6.549,2.15Z" transform="translate(0 0)" fill="#004e89"/></g><path d="M5.421,12.222V8.182H1.381a1.381,1.381,0,1,1,0-2.761h4.04V1.381a1.381,1.381,0,1,1,2.761,0v4.04h4.04a1.381,1.381,0,0,1,0,2.761H8.182v4.04a1.381,1.381,0,1,1-2.761,0Z" transform="translate(323.472 52.935) rotate(45)" fill="#004e89"/></g></svg>